HIERARCHY
ROOT Hips
{
	OFFSET -0.179506 -22.333345 2.821913
	CHANNELS 6 Xposition Yposition Zposition Zrotation Yrotation Xrotation 
	JOINT LeftUpLeg
	{
		OFFSET 6.951974 -9.140623 -0.681533
		CHANNELS 3 Zrotation Yrotation Xrotation
		JOINT LeftLeg
		{
			OFFSET 3.427654 -37.519855 -0.449580
			CHANNELS 3 Zrotation Yrotation Xrotation
			JOINT LeftFoot
			{
				OFFSET -1.359570 -39.796059 -4.369333
				CHANNELS 3 Zrotation Yrotation Xrotation
				JOINT LeftToe
				{
					OFFSET 2.635814 -5.579078 11.928840
					CHANNELS 3 Zrotation Yrotation Xrotation
					End Site
					{
						OFFSET 0.000000 0.000000 0.000000
					}
				}
			}
		}
	}
	JOINT RightUpLeg
	{
		OFFSET -6.767048 -9.052170 -0.431982
		CHANNELS 3 Zrotation Yrotation Xrotation
		JOINT RightLeg
		{
			OFFSET -3.829005 -38.256897 -0.885003
			CHANNELS 3 Zrotation Yrotation Xrotation
			JOINT RightFoot
			{
				OFFSET 1.577377 -39.841461 -4.231180
				CHANNELS 3 Zrotation Yrotation Xrotation
				JOINT RightToe
				{
					OFFSET -2.537174 -4.814398 12.334795
					CHANNELS 3 Zrotation Yrotation Xrotation
					End Site
					{
						OFFSET 0.000000 0.000000 0.000000
					}
				}
			}
		}
	}
	JOINT Spine
	{
		OFFSET -0.253288 10.896323 -2.669631
		CHANNELS 3 Zrotation Yrotation Xrotation
		JOINT Spine1
		{
			OFFSET 0.548704 13.518043 0.109247
			CHANNELS 3 Zrotation Yrotation Xrotation
			JOINT Spine2
			{
				OFFSET 0.145701 5.292222 2.542457
				CHANNELS 3 Zrotation Yrotation Xrotation
				JOINT Neck
				{
					OFFSET -0.277840 21.387037 -4.285703
					CHANNELS 3 Zrotation Yrotation Xrotation
					JOINT Head
					{
						OFFSET 0.515184 6.496960 5.134897
						CHANNELS 3 Zrotation Yrotation Xrotation
						End Site
						{
							OFFSET 0.000000 0.000000 0.000000
						}
					}
				}
				JOINT LeftShoulder
				{
					OFFSET 7.884473 12.174932 -3.408961
					CHANNELS 3 Zrotation Yrotation Xrotation
					JOINT LeftArm
					{
						OFFSET 9.097692 3.046888 -0.886815
						CHANNELS 3 Zrotation Yrotation Xrotation
						JOINT LeftForeArm
						{
							OFFSET 25.961220 -1.277207 -2.745643
							CHANNELS 3 Zrotation Yrotation Xrotation
							JOINT LeftHand
							{
								OFFSET 24.923361 0.898606 -0.117091
								CHANNELS 3 Zrotation Yrotation Xrotation
								End Site
								{
									OFFSET 0.000000 0.000000 0.000000
								}
							}
						}
					}
				}
				JOINT RightShoulder
				{
					OFFSET -8.175920 11.883285 -3.861528
					CHANNELS 3 Zrotation Yrotation Xrotation
					JOINT RightArm
					{
						OFFSET -9.601238 3.255117 -0.914307
						CHANNELS 3 Zrotation Yrotation Xrotation
						JOINT RightForeArm
						{
							OFFSET -25.374195 -1.332924 -2.140099
							CHANNELS 3 Zrotation Yrotation Xrotation
							JOINT RightHand
							{
								OFFSET -25.529810 0.777228 -0.555919
								CHANNELS 3 Zrotation Yrotation Xrotation
								End Site
								{
									OFFSET 0.000000 0.000000 0.000000
								}
							}
						}
					}
				}
			}
		}
	}
}
MOTION
Frames: 6
Frame Time: 0.033333
-28.703798 11.549964 94.346916 -173.910707 -0.455014 92.057754 0.171231 3.401278 2.827787 -1.684886 -13.131585 -6.637786 -0.008392 15.936704 -6.410084 nan nan nan -2.276664 -5.802480 0.205031 3.566815 6.982948 -4.270426 3.468285 -13.511459 -3.173431 nan nan nan 0.456006 1.160480 -2.189972 0.961660 -4.248453 0.620160 0.674316 0.568249 -2.035990 -2.384574 -1.812186 16.076741 4.578310 1.699922 -1.935524 6.819776 0.853756 -10.451012 -6.708692 -16.047144 -11.134573 9.473381 0.277961 -6.735651 -25.460625 -7.990218 14.766281 -11.486521 -2.110562 -7.869030 3.011330 7.441702 -15.024794 -9.960948 3.112769 -6.002801 21.169555 3.638273 11.853645 
-28.716188 11.562175 94.355865 -173.839878 -0.455308 91.973784 0.195344 3.447864 2.930626 -1.702426 -13.226561 -6.656579 -0.170572 15.791201 -6.420839 nan nan nan -2.292181 -5.877600 0.302137 3.554637 6.963698 -4.247960 3.712906 -13.527526 -3.279683 nan nan nan 0.485028 1.112875 -2.080475 0.938364 -4.235139 0.474139 0.667039 0.550602 -1.901075 -2.249072 -1.817305 15.902491 4.498801 1.677692 -1.657172 6.851161 0.913409 -10.408154 -6.791182 -16.181844 -11.130525 9.565191 0.338024 -6.763649 -25.463587 -8.104440 14.696368 -11.591718 -2.188217 -7.917684 3.233217 7.536168 -14.993740 -10.093367 3.051954 -5.938858 21.211761 3.612949 11.785702 
-28.717510 11.565772 94.357407 -173.830198 -0.462883 91.957708 0.200554 3.469892 2.960532 -1.721694 -13.254252 -6.672091 -0.214310 15.758279 -6.462657 nan nan nan -2.304344 -5.886840 0.318006 3.542847 6.976770 -4.240406 3.763226 -13.528916 -3.306740 nan nan nan 0.494817 1.105492 -2.074862 0.926470 -4.223565 0.431232 0.666211 0.555615 -1.840869 -2.266651 -1.816669 15.883683 4.484933 1.684585 -1.641210 6.812165 0.881180 -10.390965 -6.781909 -16.187835 -11.127526 9.601050 0.346285 -6.766474 -25.373071 -8.179196 14.623358 -11.618037 -2.199817 -7.925313 3.291812 7.514683 -15.002911 -10.127133 3.119299 -5.950192 21.099522 3.663641 11.704114 
-28.732460 11.564590 94.357460 -173.841100 -0.476612 91.924458 0.172387 3.471482 3.013843 -1.722774 -13.282043 -6.686604 -0.207891 15.754792 -6.523369 nan nan nan -2.345161 -5.893938 0.354636 3.553988 6.988530 -4.241283 3.784130 -13.512286 -3.319001 nan nan nan 0.530656 1.115178 -2.067445 0.908194 -4.207222 0.455849 0.655160 0.556302 -1.832881 -2.287759 -1.809418 15.885474 4.459989 1.693467 -1.699695 6.803905 0.867585 -10.391714 -6.825393 -16.214989 -11.136076 9.662973 0.360759 -6.782543 -25.385458 -8.116601 14.683419 -11.656537 -2.194561 -7.895833 3.310487 7.485530 -15.020237 -10.133037 3.153920 -5.968403 21.169359 3.664523 11.665163 
-28.742628 11.553569 94.352379 -173.855995 -0.471964 91.904601 0.166822 3.452275 3.048472 -1.724790 -13.316106 -6.690115 -0.185444 15.767741 -6.461105 nan nan nan -2.350298 -5.894049 0.373678 3.552177 7.006059 -4.242201 3.763823 -13.529068 -3.302549 nan nan nan 0.569955 1.106606 -2.040686 0.906161 -4.187592 0.443882 0.647910 0.561345 -1.810403 -2.248166 -1.821553 15.742477 4.365726 1.706364 -1.542547 6.797829 0.919889 -10.386884 -6.871401 -16.285004 -11.181141 9.732899 0.310111 -6.832502 -25.426727 -7.921479 14.733455 -11.686161 -2.232843 -7.838465 3.319568 7.529096 -15.064391 -10.159621 3.173093 -5.986749 21.274164 3.503204 11.656979 
-28.707575 11.533738 94.345322 -173.905987 -0.489469 92.119091 0.259974 3.321916 2.886308 -1.928958 -13.608138 -6.794773 0.355219 16.070356 -6.049056 nan nan nan -2.354874 -5.842100 0.098567 3.653804 7.391013 -4.219186 3.449769 -13.927147 -3.461733 nan nan nan 0.221996 1.158797 -2.749517 1.092340 -4.195688 1.708356 0.388936 0.793958 -2.942597 -1.054771 -1.438239 13.432448 5.190488 2.413950 3.545264 6.268199 0.866266 -9.244155 -5.529922 -14.434820 -9.057768 9.345498 -2.421855 -3.064609 -27.230580 -11.011105 10.969964 -10.504463 -2.199290 -7.364884 2.416321 7.282332 -14.271651 -10.190092 3.353183 -6.170827 21.366726 3.927828 10.672404 
